<svg version="1.1" viewBox="0.0 0.0 283.7034120734908 347.7769028871391" fill="none" stroke="none" stroke-linecap="square" stroke-miterlimit="10" xmlns:xlink="http://www.w3.org/1999/xlink" xmlns="http://www.w3.org/2000/svg"><clipPath id="p.0"><path d="m0 0l283.7034 0l0 347.77692l-283.7034 0l0 -347.77692z" clip-rule="nonzero"/></clipPath><g clip-path="url(#p.0)"><path fill="#000000" fill-opacity="0.0" d="m0 0l283.7034 0l0 347.77692l-283.7034 0z" fill-rule="evenodd"/><g filter="url(#shadowFilter-p.1)"><use xlink:href="#p.1" transform="matrix(1.0 0.0 0.0 1.0 0.0 12.0)"/></g><defs><filter id="shadowFilter-p.1" filterUnits="userSpaceOnUse"><feGaussianBlur in="SourceAlpha" stdDeviation="17.0" result="blur"/><feComponentTransfer in="blur" color-interpolation-filters="sRGB"><feFuncR type="linear" slope="0" intercept="0.0"/><feFuncG type="linear" slope="0" intercept="0.0"/><feFuncB type="linear" slope="0" intercept="0.0"/><feFuncA type="linear" slope="0.48" intercept="0"/></feComponentTransfer></filter></defs><g id="p.1"><path fill="#d9d9d9" d="m7.6981626 232.3937l121.55905 -227.43307l121.55905 227.43307z" fill-rule="evenodd"/><path stroke="#cccccc" stroke-width="1.0" stroke-linejoin="round" stroke-linecap="butt" d="m7.6981626 232.3937l121.55905 -227.43307l121.55905 227.43307z" fill-rule="evenodd"/></g><g filter="url(#shadowFilter-p.2)"><use xlink:href="#p.2" transform="matrix(1.0 0.0 0.0 1.0 0.0 40.0)"/></g><defs><filter id="shadowFilter-p.2" filterUnits="userSpaceOnUse"><feGaussianBlur in="SourceAlpha" stdDeviation="22.0" result="blur"/><feComponentTransfer in="blur" color-interpolation-filters="sRGB"><feFuncR type="linear" slope="0" intercept="0.05490196"/><feFuncG type="linear" slope="0" intercept="0.105882354"/><feFuncB type="linear" slope="0" intercept="0.105882354"/><feFuncA type="linear" slope="0.25" intercept="0"/></feComponentTransfer></filter></defs><g id="p.2"><path fill="#999999" d="m68.438324 265.86615l107.55905 -176.25198l107.55905 176.25198z" fill-rule="evenodd"/><path stroke="#666666" stroke-width="1.0" stroke-linejoin="round" stroke-linecap="butt" d="m68.438324 265.86615l107.55905 -176.25198l107.55905 176.25198z" fill-rule="evenodd"/></g><path fill="#000000" fill-opacity="0.0" d="m125.821526 165.61679l102.20472 174.07874" fill-rule="evenodd"/><path stroke="#a4c2f4" stroke-width="8.0" stroke-linejoin="round" stroke-linecap="butt" d="m125.821526 165.61679l102.20472 174.07874" fill-rule="evenodd"/><g filter="url(#shadowFilter-p.3)"><use xlink:href="#p.3" transform="matrix(1.0 0.0 0.0 1.0 -26.431456430446193 32.64013044619423)"/></g><defs><filter id="shadowFilter-p.3" filterUnits="userSpaceOnUse"><feGaussianBlur in="SourceAlpha" stdDeviation="17.0" result="blur"/><feComponentTransfer in="blur" color-interpolation-filters="sRGB"><feFuncR type="linear" slope="0" intercept="0.0"/><feFuncG type="linear" slope="0" intercept="0.0"/><feFuncB type="linear" slope="0" intercept="0.0"/><feFuncA type="linear" slope="0.2" intercept="0"/></feComponentTransfer></filter></defs><g id="p.3"><path fill="#0e1b1b" d="m1.1417323 347.28348l107.55906 -176.25198l107.55905 176.25198z" fill-rule="evenodd"/></g><path fill="#000000" fill-opacity="0.0" d="m128.34383 4.6902885l43.685043 84.8819" fill-rule="evenodd"/><path stroke="#6d9eeb" stroke-width="8.0" stroke-linejoin="round" stroke-linecap="butt" d="m128.34383 4.6902885l43.685043 84.8819" fill-rule="evenodd"/><path fill="#000000" fill-opacity="0.0" d="m169.25984 87.438324l-52.69291 81.13385" fill-rule="evenodd"/><path stroke="#6d9eeb" stroke-width="8.0" stroke-linejoin="round" stroke-linecap="butt" d="m169.25984 87.438324l-52.69291 81.13385" fill-rule="evenodd"/><path fill="#000000" fill-opacity="0.0" d="m175.99738 89.614174l-51.433067 78.92913" fill-rule="evenodd"/><path stroke="#a4c2f4" stroke-width="8.0" stroke-linejoin="round" stroke-linecap="butt" d="m175.99738 89.614174l-51.433067 78.92913" fill-rule="evenodd"/><path fill="#000000" fill-opacity="0.0" d="m116.57743 165.19685l105.88976 178.14174" fill-rule="evenodd"/><path stroke="#6d9eeb" stroke-width="8.0" stroke-linejoin="round" stroke-linecap="butt" d="m116.57743 165.19685l105.88976 178.14174" fill-rule="evenodd"/><path fill="#000000" fill-opacity="0.0" d="m110.2126 167.95013l105.32283 178.80316" fill-rule="evenodd"/><path stroke="#3c78d8" stroke-width="8.0" stroke-linejoin="round" stroke-linecap="butt" d="m110.2126 167.95013l105.32283 178.80316" fill-rule="evenodd"/></g></svg>